<svg xmlns="http://www.w3.org/2000/svg" xmlns:xlink="http://www.w3.org/1999/xlink" width="1080" zoomAndPan="magnify" viewBox="0 0 810 809.999993" height="1080" preserveAspectRatio="xMidYMid meet" version="1.2"><defs><clipPath id="3e6f331864"><path d="M 252.246094 501.667969 L 273.742188 501.667969 L 273.742188 523.921875 L 252.246094 523.921875 Z M 252.246094 501.667969 "/></clipPath><clipPath id="af77c1b5f8"><path d="M 260.109375 515.195312 L 265.746094 515.195312 L 264.726562 512.234375 C 264.398438 511.320312 264.089844 510.394531 263.8125 509.464844 C 263.535156 508.53125 263.265625 507.605469 263.003906 506.664062 L 262.925781 506.664062 C 262.667969 507.558594 262.386719 508.472656 262.082031 509.394531 C 261.773438 510.320312 261.453125 511.273438 261.128906 512.234375 Z M 260.53125 501.667969 L 265.535156 501.667969 L 273.742188 523.867188 L 268.632812 523.867188 L 266.902344 518.757812 L 259.011719 518.757812 L 257.289062 523.867188 L 252.246094 523.867188 Z M 260.53125 501.667969 "/></clipPath><clipPath id="5959580199"><path d="M 300.207031 501.28125 L 317.898438 501.28125 L 317.898438 524.292969 L 300.207031 524.292969 Z M 300.207031 501.28125 "/></clipPath><clipPath id="ef46cf1d65"><path d="M 312.183594 520.523438 C 313.261719 520.523438 314.1875 520.425781 314.9375 520.246094 C 315.6875 520.0625 316.332031 519.800781 316.871094 519.464844 L 317.863281 522.988281 C 317.292969 523.3125 316.496094 523.613281 315.464844 523.871094 C 314.4375 524.132812 313.175781 524.257812 311.695312 524.257812 C 310.03125 524.257812 308.492188 523.988281 307.078125 523.46875 C 305.660156 522.949219 304.449219 522.179688 303.429688 521.179688 C 302.410156 520.175781 301.613281 518.964844 301.054688 517.542969 C 300.496094 516.117188 300.207031 514.519531 300.207031 512.730469 C 300.207031 511 300.484375 509.421875 301.035156 508.015625 C 301.582031 506.613281 302.363281 505.398438 303.363281 504.398438 C 304.363281 503.398438 305.574219 502.628906 307.007812 502.089844 C 308.441406 501.550781 310.039062 501.28125 311.800781 501.28125 C 313.300781 501.28125 314.542969 501.425781 315.515625 501.703125 C 316.484375 501.984375 317.285156 502.292969 317.890625 502.617188 L 316.792969 506.179688 C 316.179688 505.851562 315.503906 505.574219 314.761719 505.351562 C 314.023438 505.128906 313.195312 505.015625 312.28125 505.015625 C 311.320312 505.015625 310.414062 505.160156 309.566406 505.4375 C 308.722656 505.71875 308 506.179688 307.355469 506.792969 C 306.710938 507.410156 306.230469 508.21875 305.863281 509.191406 C 305.5 510.160156 305.316406 511.34375 305.316406 512.730469 C 305.316406 514.066406 305.488281 515.230469 305.84375 516.203125 C 306.199219 517.175781 306.683594 517.984375 307.308594 518.617188 C 307.933594 519.253906 308.652344 519.726562 309.492188 520.042969 C 310.328125 520.359375 311.222656 520.515625 312.183594 520.515625 "/></clipPath><clipPath id="6e216079e8"><path d="M 235.765625 238.605469 L 366 238.605469 L 366 473.796875 L 235.765625 473.796875 Z M 235.765625 238.605469 "/></clipPath><clipPath id="4e91a29256"><path d="M 365.804688 322.0625 L 365.804688 303.628906 C 365.804688 267.722656 336.691406 238.605469 300.785156 238.605469 C 264.878906 238.605469 235.765625 267.722656 235.765625 303.628906 L 235.765625 408.402344 C 235.765625 444.316406 264.878906 473.421875 300.785156 473.421875 C 318.738281 473.421875 335 466.140625 346.765625 454.371094 C 358.53125 442.605469 365.816406 426.34375 365.816406 408.390625 L 365.816406 373.417969 L 325.589844 373.417969 L 325.589844 408.488281 C 325.589844 422.582031 314.167969 434.003906 300.074219 434.003906 C 293.03125 434.003906 286.644531 431.148438 282.035156 426.527344 C 277.425781 421.910156 274.558594 415.53125 274.558594 408.488281 L 274.558594 302.570312 C 274.558594 288.484375 285.988281 277.054688 300.074219 277.054688 C 307.125 277.054688 313.503906 279.910156 318.113281 284.519531 C 322.722656 289.128906 325.589844 295.515625 325.589844 302.558594 L 325.589844 322.0625 Z M 365.804688 322.0625 "/></clipPath><clipPath id="14dba0569f"><path d="M 344.679688 501.667969 L 366.171875 501.667969 L 366.171875 523.921875 L 344.679688 523.921875 Z M 344.679688 501.667969 "/></clipPath><clipPath id="ade7896810"><path d="M 352.539062 515.195312 L 358.175781 515.195312 L 357.15625 512.234375 C 356.832031 511.320312 356.523438 510.394531 356.242188 509.464844 C 355.964844 508.53125 355.695312 507.605469 355.433594 506.664062 L 355.359375 506.664062 C 355.097656 507.558594 354.820312 508.472656 354.511719 509.394531 C 354.203125 510.320312 353.886719 511.273438 353.558594 512.234375 Z M 352.964844 501.667969 L 357.964844 501.667969 L 366.171875 523.867188 L 361.0625 523.867188 L 359.332031 518.757812 L 351.441406 518.757812 L 349.71875 523.867188 L 344.679688 523.867188 Z M 352.964844 501.667969 "/></clipPath><clipPath id="838fbd645f"><path d="M 394.363281 501.667969 L 413.679688 501.667969 L 413.679688 523.917969 L 394.363281 523.917969 Z M 394.363281 501.667969 "/></clipPath><clipPath id="10d8f3122e"><path d="M 399.195312 520.132812 L 400.851562 520.132812 C 401.839844 520.132812 402.792969 520.007812 403.726562 519.765625 C 404.660156 519.527344 405.46875 519.09375 406.179688 518.496094 C 406.890625 517.902344 407.449219 517.101562 407.871094 516.101562 C 408.296875 515.101562 408.507812 513.839844 408.507812 512.3125 C 408.507812 510.078125 407.871094 508.367188 406.601562 507.183594 C 405.332031 506 403.621094 505.402344 401.484375 505.402344 L 399.195312 505.402344 Z M 402.121094 501.667969 C 403.832031 501.667969 405.398438 501.890625 406.804688 502.332031 C 408.210938 502.777344 409.421875 503.449219 410.433594 504.34375 C 411.441406 505.238281 412.222656 506.34375 412.78125 507.671875 C 413.335938 509 413.605469 510.550781 413.605469 512.3125 C 413.605469 514.332031 413.28125 516.0625 412.617188 517.507812 C 411.953125 518.949219 411.066406 520.152344 409.941406 521.105469 C 408.816406 522.058594 407.488281 522.757812 405.976562 523.203125 C 404.46875 523.644531 402.859375 523.875 401.167969 523.875 L 394.363281 523.875 L 394.363281 501.667969 Z M 402.121094 501.667969 "/></clipPath><clipPath id="7f901659ae"><path d="M 442.78125 501.667969 L 457.234375 501.667969 L 457.234375 505.402344 L 442.78125 505.402344 Z M 442.78125 505.402344 L 447.613281 505.402344 L 447.613281 510.480469 L 442.78125 510.480469 Z M 442.78125 510.480469 L 456.320312 510.480469 L 456.320312 514.175781 L 442.78125 514.175781 Z M 442.78125 514.175781 L 447.613281 514.175781 L 447.613281 520.132812 L 442.78125 520.132812 Z M 442.78125 520.132812 L 457.339844 520.132812 L 457.339844 523.863281 L 442.78125 523.863281 Z M 442.78125 520.132812 "/></clipPath><clipPath id="34304e517b"><path d="M 486.199219 501.667969 L 511 501.667969 L 511 523.867188 L 486.199219 523.867188 Z M 486.199219 501.667969 "/></clipPath><clipPath id="320e09e655"><path d="M 487.785156 501.667969 L 493.875 501.667969 L 497.050781 511.78125 C 497.195312 512.222656 497.339844 512.714844 497.492188 513.222656 C 497.648438 513.734375 497.789062 514.253906 497.933594 514.773438 C 498.078125 515.292969 498.203125 515.792969 498.320312 516.285156 C 498.4375 516.773438 498.53125 517.234375 498.597656 517.660156 L 498.742188 517.660156 C 498.8125 517.285156 498.90625 516.839844 499.023438 516.339844 C 499.136719 515.839844 499.273438 515.3125 499.40625 514.773438 C 499.542969 514.234375 499.6875 513.703125 499.832031 513.183594 C 499.976562 512.664062 500.101562 512.195312 500.214844 511.769531 L 503.285156 501.667969 L 509.382812 501.667969 L 511.039062 523.863281 L 506.5 523.863281 C 506.355469 521.421875 506.21875 518.976562 506.074219 516.535156 C 505.929688 514.089844 505.84375 511.625 505.796875 509.136719 L 505.757812 506.25 L 505.652344 506.25 C 505.34375 507.539062 505.015625 508.894531 504.652344 510.300781 C 504.285156 511.703125 503.9375 512.945312 503.613281 514.003906 L 500.464844 523.863281 L 496.734375 523.863281 L 493.527344 513.964844 C 493.125 512.695312 492.75 511.359375 492.402344 509.941406 C 492.058594 508.527344 491.769531 507.296875 491.554688 506.238281 L 491.449219 506.238281 C 491.449219 507.085938 491.441406 507.972656 491.414062 508.894531 C 491.382812 509.816406 491.363281 510.742188 491.324219 511.664062 C 491.285156 512.589844 491.257812 513.484375 491.21875 514.359375 C 491.179688 515.234375 491.144531 516.042969 491.09375 516.773438 L 490.671875 523.855469 L 486.199219 523.855469 Z M 487.785156 501.667969 "/></clipPath><clipPath id="e3c228193e"><path d="M 433 272 L 562.910156 272 L 562.910156 424 L 433 424 Z M 433 272 "/></clipPath><clipPath id="1ab3c69d9f"><path d="M 433.316406 423.773438 L 562.21875 293.042969 L 562.21875 272.046875 L 518.675781 272.046875 Z M 433.316406 423.773438 "/></clipPath><clipPath id="55b871ee51"><path d="M 441.484375 239 L 596 239 L 596 317 L 441.484375 317 Z M 441.484375 239 "/></clipPath><clipPath id="c9ffca86ba"><path d="M 522.457031 262.457031 L 538.945312 273.019531 L 441.675781 273.019531 L 441.675781 239.394531 L 595.664062 239.394531 L 595.941406 259.175781 L 595.941406 316.632812 L 574.601562 294.003906 L 574.601562 259.136719 L 522.40625 259.058594 Z M 522.457031 262.457031 "/></clipPath><clipPath id="bf2c96f0a1"><path d="M 518.035156 310.171875 L 555.871094 310.171875 L 555.871094 468.554688 L 518.035156 468.554688 Z M 518.035156 310.171875 "/></clipPath><clipPath id="5520cdf136"><path d="M 555.40625 468.445312 L 518.675781 468.445312 L 518.675781 348.035156 L 555.40625 310.667969 Z M 555.40625 468.445312 "/></clipPath><clipPath id="80e4d61a62"><path d="M 380.300781 243.734375 L 421.085938 243.734375 L 421.085938 428.21875 L 380.300781 428.21875 Z M 380.300781 428.21875 L 497.382812 428.21875 L 497.382812 468.445312 L 380.300781 468.445312 Z M 380.300781 428.21875 "/></clipPath><clipPath id="e0bf2d4764"><path d="M 380 238.019531 L 421.246094 238.019531 L 421.246094 373 L 380 373 Z M 380 238.019531 "/></clipPath><clipPath id="819887997a"><path d="M 421.085938 307.339844 L 380.300781 372.945312 L 380.300781 238.433594 L 421.085938 238.433594 Z M 421.085938 307.339844 "/></clipPath><clipPath id="4cc85a2e4d"><path d="M 538.984375 501.667969 L 559.257812 501.667969 L 559.257812 523.910156 L 538.984375 523.910156 Z M 538.984375 501.667969 "/></clipPath><clipPath id="9c582005ed"><path d="M 544.410156 501.667969 L 549.136719 510.300781 L 553.925781 501.667969 L 559.179688 501.667969 L 551.425781 514.707031 L 551.425781 523.863281 L 546.597656 523.863281 L 546.597656 514.707031 L 538.984375 501.667969 Z M 544.410156 501.667969 "/></clipPath></defs><g id="311d30855e"><rect x="0" width="810" y="0" height="809.999993" style="fill:#ffffff;fill-opacity:1;stroke:none;"/><rect x="0" width="810" y="0" height="809.999993" style="fill:#ffffff;fill-opacity:1;stroke:none;"/><g clip-rule="nonzero" clip-path="url(#3e6f331864)"><g clip-rule="nonzero" clip-path="url(#af77c1b5f8)"><path style=" stroke:none;fill-rule:nonzero;fill:#000000;fill-opacity:1;" d="M 252.246094 501.667969 L 273.742188 501.667969 L 273.742188 523.835938 L 252.246094 523.835938 Z M 252.246094 501.667969 "/></g></g><g clip-rule="nonzero" clip-path="url(#5959580199)"><g clip-rule="nonzero" clip-path="url(#ef46cf1d65)"><path style=" stroke:none;fill-rule:nonzero;fill:#000000;fill-opacity:1;" d="M 300.207031 501.28125 L 317.898438 501.28125 L 317.898438 524.222656 L 300.207031 524.222656 Z M 300.207031 501.28125 "/></g></g><g clip-rule="nonzero" clip-path="url(#6e216079e8)"><g clip-rule="nonzero" clip-path="url(#4e91a29256)"><path style=" stroke:none;fill-rule:nonzero;fill:#000000;fill-opacity:1;" d="M 235.765625 238.605469 L 365.804688 238.605469 L 365.804688 473.289062 L 235.765625 473.289062 Z M 235.765625 238.605469 "/></g></g><g clip-rule="nonzero" clip-path="url(#14dba0569f)"><g clip-rule="nonzero" clip-path="url(#ade7896810)"><path style=" stroke:none;fill-rule:nonzero;fill:#000000;fill-opacity:1;" d="M 344.679688 501.667969 L 366.171875 501.667969 L 366.171875 523.835938 L 344.679688 523.835938 Z M 344.679688 501.667969 "/></g></g><g clip-rule="nonzero" clip-path="url(#838fbd645f)"><g clip-rule="nonzero" clip-path="url(#10d8f3122e)"><path style=" stroke:none;fill-rule:nonzero;fill:#000000;fill-opacity:1;" d="M 394.363281 501.667969 L 413.605469 501.667969 L 413.605469 523.839844 L 394.363281 523.839844 Z M 394.363281 501.667969 "/></g></g><g clip-rule="nonzero" clip-path="url(#7f901659ae)"><path style=" stroke:none;fill-rule:nonzero;fill:#000000;fill-opacity:1;" d="M 442.78125 501.667969 L 457.335938 501.667969 L 457.335938 523.894531 L 442.78125 523.894531 Z M 442.78125 501.667969 "/></g><g clip-rule="nonzero" clip-path="url(#34304e517b)"><g clip-rule="nonzero" clip-path="url(#320e09e655)"><path style=" stroke:none;fill-rule:nonzero;fill:#000000;fill-opacity:1;" d="M 486.199219 501.667969 L 511 501.667969 L 511 523.867188 L 486.199219 523.867188 Z M 486.199219 501.667969 "/></g></g><g clip-rule="nonzero" clip-path="url(#e3c228193e)"><g clip-rule="nonzero" clip-path="url(#1ab3c69d9f)"><path style=" stroke:none;fill-rule:nonzero;fill:#ff0000;fill-opacity:1;" d="M 375.492188 233.621094 L 600.746094 233.621094 L 600.746094 472.953125 L 375.492188 472.953125 Z M 375.492188 233.621094 "/></g></g><g clip-rule="nonzero" clip-path="url(#55b871ee51)"><g clip-rule="nonzero" clip-path="url(#c9ffca86ba)"><path style=" stroke:none;fill-rule:nonzero;fill:#ff0000;fill-opacity:1;" d="M 375.492188 233.621094 L 600.746094 233.621094 L 600.746094 472.953125 L 375.492188 472.953125 Z M 375.492188 233.621094 "/></g></g><g clip-rule="nonzero" clip-path="url(#bf2c96f0a1)"><g clip-rule="nonzero" clip-path="url(#5520cdf136)"><path style=" stroke:none;fill-rule:nonzero;fill:#ff0000;fill-opacity:1;" d="M 375.492188 233.621094 L 600.746094 233.621094 L 600.746094 472.953125 L 375.492188 472.953125 Z M 375.492188 233.621094 "/></g></g><g clip-rule="nonzero" clip-path="url(#80e4d61a62)"><path style=" stroke:none;fill-rule:nonzero;fill:#000000;fill-opacity:1;" d="M 375.492188 233.621094 L 600.746094 233.621094 L 600.746094 472.953125 L 375.492188 472.953125 Z M 375.492188 233.621094 "/></g><g clip-rule="nonzero" clip-path="url(#e0bf2d4764)"><g clip-rule="nonzero" clip-path="url(#819887997a)"><path style=" stroke:none;fill-rule:nonzero;fill:#ff0000;fill-opacity:1;" d="M 375.492188 233.621094 L 600.746094 233.621094 L 600.746094 472.953125 L 375.492188 472.953125 Z M 375.492188 233.621094 "/></g></g><g clip-rule="nonzero" clip-path="url(#4cc85a2e4d)"><g clip-rule="nonzero" clip-path="url(#9c582005ed)"><path style=" stroke:none;fill-rule:nonzero;fill:#000000;fill-opacity:1;" d="M 538.984375 501.667969 L 559.175781 501.667969 L 559.175781 523.832031 L 538.984375 523.832031 Z M 538.984375 501.667969 "/></g></g></g></svg>